<svg width="24" height="24" viewBox="0 0 24 24" fill="none" xmlns="http://www.w3.org/2000/svg">
<path d="M12 22C11.182 22 10.4 21.67 8.837 21.012C4.946 19.373 3 18.554 3 17.175V7.542M12 22C12.818 22 13.6 21.67 15.163 21.012C19.054 19.373 21 18.554 21 17.175V7.542M12 22V12.03M3 7.542C3 8.155 3.802 8.542 5.405 9.315L8.325 10.725C10.129 11.595 11.03 12.03 12 12.03M3 7.542C3 6.93 3.802 6.543 5.405 5.77L7 5M21 7.542C21 8.155 20.198 8.542 18.595 9.315L15.675 10.725C13.871 11.595 12.97 12.03 12 12.03M21 7.542C21 6.93 20.198 6.543 18.595 5.77L17 5M6 13.026L8 14.023" stroke="currentColor" stroke-width="1.5" stroke-linecap="round" stroke-linejoin="round"/>
<path d="M10 2L12 4M12 4L14 6M12 4L10 6M12 4L14 2" stroke="currentColor" stroke-width="1.5" stroke-linecap="round"/>
</svg>
