<svg width="24" height="24" viewBox="0 0 24 24" fill="none" xmlns="http://www.w3.org/2000/svg">
<path fill-rule="evenodd" clip-rule="evenodd" d="M12.0001 22.7145C7.97621 22.7145 4.71436 19.4527 4.71436 15.4288C4.71436 12.4397 6.91121 7.89966 11.3049 1.8088C11.3844 1.6987 11.4888 1.60904 11.6096 1.54721C11.7305 1.48537 11.8643 1.45312 12.0001 1.45312C12.1358 1.45312 12.2696 1.48537 12.3905 1.54721C12.5114 1.60904 12.6158 1.6987 12.6952 1.8088C17.0889 7.89994 19.2858 12.4399 19.2858 15.4288C19.2858 19.4527 16.0239 22.7145 12.0001 22.7145ZM11.7039 18.8089C11.6225 18.8053 11.5413 18.8191 11.4657 18.8493C11.39 18.8795 11.3217 18.9255 11.2652 18.9843C11.2088 19.043 11.1655 19.1131 11.1383 19.1899C11.1111 19.2666 11.1005 19.3483 11.1074 19.4295C11.1352 19.7252 11.3975 19.9429 11.6936 19.9151C13.1539 19.7779 14.2835 19.3099 15.0824 18.5111C15.8812 17.7122 16.3492 16.5827 16.4864 15.1224C16.4936 15.0451 16.4841 14.9671 16.4583 14.8939C16.4326 14.8206 16.3913 14.7538 16.3373 14.698C16.2833 14.6422 16.2179 14.5988 16.1455 14.5707C16.0732 14.5426 15.9956 14.5305 15.9181 14.5352C15.768 14.5443 15.6274 14.612 15.5268 14.7238C15.4262 14.8356 15.3735 14.9824 15.3802 15.1327C15.4231 16.0984 15.0626 16.9634 14.2989 17.7277C13.5352 18.4919 12.6702 18.8524 11.7039 18.8089Z" fill="#888888"/>
</svg>
